<svg width="370" height="65" viewBox="0 0 370 65" fill="none" xmlns="http://www.w3.org/2000/svg">
<path d="M18.3213 10.1721C16.1935 6.66592 11.6634 6.66593 9.53568 10.1722L2.32173 22.0598C-0.142218 26.1201 2.39591 31.6766 6.71452 31.6766L21.1424 31.6766C25.4611 31.6766 27.9992 26.1201 25.5352 22.0598L18.3213 10.1721Z" fill="#FF38BB"/>
<path d="M19.4333 9.28764C16.7669 4.8937 11.0899 4.8937 8.42346 9.28764L1.2095 21.1753C-1.87825 26.2635 1.30243 33.2268 6.71443 33.2268L21.1423 33.2268C26.5544 33.2268 29.7351 26.2635 26.6473 21.1753L19.4333 9.28764ZM9.53567 10.172C11.6634 6.66589 16.1934 6.6659 18.3211 10.172L25.5351 22.0596L25.5919 22.1552C27.9406 26.1746 25.4668 31.5904 21.2432 31.6754L21.1423 31.6765L6.71443 31.6765L6.61355 31.6754C2.35648 31.5897 -0.122986 26.0882 2.32171 22.0596L9.53567 10.172Z" fill="#222222"/>
<path d="M46.6787 10.1721C48.8065 6.66592 53.3366 6.66593 55.4643 10.1722L62.6783 22.0598C65.1422 26.1201 62.6041 31.6766 58.2855 31.6766L43.8576 31.6766C39.5389 31.6766 37.0008 26.1201 39.4648 22.0598L46.6787 10.1721Z" fill="#FF38BB"/>
<path d="M45.5667 9.28765C48.2331 4.8937 53.9101 4.89371 56.5765 9.28765L63.7905 21.1753C66.8782 26.2635 63.6976 33.2268 58.2856 33.2268L43.8576 33.2268C38.4456 33.2268 35.2649 26.2635 38.3527 21.1753L45.5667 9.28765ZM55.4643 10.172C53.3366 6.6659 48.8066 6.6659 46.6789 10.172L39.4649 22.0596L39.4081 22.1552C37.0594 26.1746 39.5332 31.5904 43.7568 31.6754L43.8576 31.6765L58.2856 31.6765L58.3864 31.6755C62.6435 31.5897 65.123 26.0882 62.6783 22.0596L55.4643 10.172Z" fill="#222222"/>
<path d="M36.893 23.0549C34.7653 26.5611 30.2352 26.5611 28.1075 23.0549L20.8935 11.1673C18.4296 7.10699 20.9677 1.55046 25.2863 1.55046L39.7142 1.55047C44.0328 1.55047 46.571 7.10699 44.107 11.1673L36.893 23.0549Z" fill="#FF38BB"/>
<path d="M38.0051 23.9394C35.3387 28.3334 29.6617 28.3333 26.9952 23.9394L19.7813 12.0518C16.6935 6.96354 19.8742 0.000230478 25.2862 0.000218934L39.7141 0.000221446C45.1262 0.000222388 48.3068 6.96353 45.2191 12.0518L38.0051 23.9394ZM28.1074 23.055C30.2352 26.5612 34.7652 26.5611 36.8929 23.055L44.1069 11.1674L44.1637 11.0718C46.5124 7.0524 44.0386 1.63663 39.815 1.5516L39.7141 1.55052L25.2862 1.55051L25.1853 1.5516C20.9283 1.63732 18.4488 7.13887 20.8935 11.1674L28.1074 23.055Z" fill="#222222"/>
<path d="M18.3213 54.8288C16.1935 58.3351 11.6634 58.3351 9.53568 54.8288L2.32173 42.9412C-0.142218 38.8809 2.39591 33.3244 6.71452 33.3244L21.1424 33.3244C25.4611 33.3244 27.9992 38.8809 25.5352 42.9412L18.3213 54.8288Z" fill="#FF38BB"/>
<path d="M19.4333 55.7133C16.7669 60.1073 11.0899 60.1073 8.42346 55.7133L1.2095 43.8257C-1.87825 38.7375 1.30243 31.7742 6.71443 31.7742L21.1423 31.7741C26.5544 31.7741 29.7351 38.7375 26.6473 43.8257L19.4333 55.7133ZM9.53567 54.829C11.6634 58.3351 16.1934 58.3351 18.3211 54.829L25.5351 42.9413L25.5919 42.8457C27.9406 38.8263 25.4668 33.4106 21.2432 33.3255L21.1423 33.3244L6.71443 33.3244L6.61355 33.3255C2.35648 33.4113 -0.122986 38.9128 2.32171 42.9413L9.53567 54.829Z" fill="#222222"/>
<path d="M46.6787 54.8288C48.8065 58.3351 53.3366 58.335 55.4643 54.8288L62.6783 42.9412C65.1422 38.8809 62.6041 33.3244 58.2855 33.3244L43.8576 33.3244C39.5389 33.3244 37.0008 38.8809 39.4648 42.9412L46.6787 54.8288Z" fill="#FF38BB"/>
<path d="M45.5662 55.7133C48.2326 60.1073 53.9096 60.1073 56.576 55.7133L63.79 43.8257C66.8778 38.7375 63.6971 31.7742 58.2851 31.7741L43.8572 31.7741C38.4451 31.7742 35.2644 38.7375 38.3522 43.8257L45.5662 55.7133ZM55.4638 54.829C53.3361 58.3351 48.8061 58.3351 46.6784 54.829L39.4644 42.9413L39.4076 42.8457C37.0589 38.8263 39.5327 33.4106 43.7563 33.3255L43.8572 33.3244L58.2851 33.3244L58.386 33.3255C62.643 33.4113 65.1225 38.9128 62.6778 42.9413L55.4638 54.829Z" fill="#222222"/>
<path d="M36.8926 41.9461C34.7648 38.4398 30.2347 38.4399 28.107 41.9461L20.893 53.8337C18.4291 57.894 20.9672 63.4505 25.2858 63.4505L39.7137 63.4505C44.0324 63.4505 46.5705 57.894 44.1065 53.8337L36.8926 41.9461Z" fill="#FF38BB"/>
<path d="M38.0046 41.0616C35.3382 36.6676 29.6612 36.6676 26.9948 41.0616L19.7808 52.9492C16.693 58.0374 19.8737 65.0007 25.2857 65.0008L39.7136 65.0008C45.1257 65.0008 48.3064 58.0374 45.2186 52.9492L38.0046 41.0616ZM28.107 41.9459C30.2347 38.4398 34.7647 38.4398 36.8924 41.9459L44.1064 53.8336L44.1632 53.9292C46.5119 57.9486 44.0381 63.3644 39.8145 63.4494L39.7136 63.4505L25.2857 63.4505L25.1848 63.4494C20.9278 63.3637 18.4483 57.8621 20.893 53.8336L28.107 41.9459Z" fill="#222222"/>
<circle cx="32.4093" cy="32.5914" r="11.9832" fill="white" stroke="#222222" stroke-width="1.27095"/>
<path d="M362.012 62.5823V0.000488281H369V62.5823H362.012Z" fill="#222222"/>
<path d="M348.145 62.5827C347.912 61.5976 347.737 60.4677 347.621 59.1929C347.562 57.9181 347.533 56.2956 347.533 54.3254H347.096V33.1171C347.096 29.7563 346.31 27.2936 344.738 25.729C343.224 24.1065 340.749 23.2953 337.313 23.2953C333.936 23.2953 331.228 23.9906 329.19 25.3813C327.21 26.7141 326.103 28.6263 325.87 31.118H319.144C319.435 26.83 321.241 23.4691 324.56 21.0354C327.879 18.6016 332.218 17.3848 337.575 17.3848C343.107 17.3848 347.213 18.6886 349.892 21.2961C352.57 23.9037 353.91 27.8151 353.91 33.0302V54.3254C353.91 55.6002 353.997 56.933 354.172 58.3237C354.347 59.6564 354.58 61.0761 354.871 62.5827H348.145ZM332.858 63.4519C328.258 63.4519 324.589 62.3509 321.852 60.149C319.173 57.8891 317.834 54.818 317.834 50.9356C317.834 47.0532 319.173 44.04 321.852 41.896C324.531 39.752 328.433 38.2454 333.557 37.3762L349.106 34.7686V40.5053L334.605 42.7652C331.344 43.2867 328.869 44.1559 327.181 45.3727C325.492 46.5896 324.647 48.357 324.647 50.6748C324.647 52.9347 325.404 54.6441 326.918 55.803C328.491 56.962 330.791 57.5414 333.819 57.5414C337.721 57.5414 340.895 56.6722 343.34 54.9338C345.844 53.1375 347.096 50.8197 347.096 47.9803L348.232 54.1516C347.3 57.1068 345.466 59.3957 342.729 61.0182C340.05 62.6407 336.76 63.4519 332.858 63.4519Z" fill="#222222"/>
<path d="M293.695 62.5827V18.254H300.247V29.5535H300.683V62.5827H293.695ZM300.683 39.4622L299.548 28.945C300.596 25.1785 302.459 22.3102 305.138 20.34C307.817 18.3699 310.903 17.3848 314.397 17.3848C315.853 17.3848 316.843 17.5007 317.367 17.7324V24.4252C317.076 24.3093 316.669 24.2514 316.144 24.2514C315.62 24.1934 314.98 24.1645 314.223 24.1645C309.797 24.1645 306.419 25.4972 304.09 28.1627C301.819 30.7703 300.683 34.5368 300.683 39.4622Z" fill="#222222"/>
<path d="M278.827 62.5827C278.594 61.5976 278.419 60.4677 278.303 59.1929C278.244 57.9181 278.215 56.2956 278.215 54.3254H277.779V33.1171C277.779 29.7563 276.992 27.2936 275.42 25.729C273.906 24.1065 271.431 23.2953 267.995 23.2953C264.618 23.2953 261.91 23.9906 259.872 25.3813C257.892 26.7141 256.785 28.6263 256.552 31.118H249.826C250.118 26.83 251.923 23.4691 255.242 21.0354C258.561 18.6016 262.9 17.3848 268.257 17.3848C273.79 17.3848 277.895 18.6886 280.574 21.2961C283.253 23.9037 284.592 27.8151 284.592 33.0302V54.3254C284.592 55.6002 284.679 56.933 284.854 58.3237C285.029 59.6564 285.262 61.0761 285.553 62.5827H278.827ZM263.54 63.4519C258.94 63.4519 255.271 62.3509 252.534 60.149C249.855 57.8891 248.516 54.818 248.516 50.9356C248.516 47.0532 249.855 44.04 252.534 41.896C255.213 39.752 259.115 38.2454 264.239 37.3762L279.788 34.7686V40.5053L265.287 42.7652C262.026 43.2867 259.551 44.1559 257.863 45.3727C256.174 46.5896 255.329 48.357 255.329 50.6748C255.329 52.9347 256.087 54.6441 257.601 55.803C259.173 56.962 261.473 57.5414 264.501 57.5414C268.403 57.5414 271.577 56.6722 274.023 54.9338C276.527 53.1375 277.779 50.8197 277.779 47.9803L278.914 54.1516C277.982 57.1068 276.148 59.3957 273.411 61.0182C270.732 62.6407 267.442 63.4519 263.54 63.4519Z" fill="#222222"/>
<path d="M175.583 62.5827V18.254H182.134V28.6843H182.571V62.5827H175.583ZM205.632 62.5827V33.2041C205.632 29.8432 204.875 27.3805 203.361 25.8159C201.846 24.2514 199.663 23.4691 196.809 23.4691C194.13 23.4691 191.714 24.1065 189.559 25.3813C187.404 26.6561 185.687 28.4235 184.405 30.6834C183.183 32.9433 182.571 35.5798 182.571 38.593L181.436 28.0758C182.95 24.7729 185.221 22.1653 188.249 20.2531C191.277 18.3409 194.567 17.3848 198.12 17.3848C202.429 17.3848 205.923 18.6596 208.602 21.2092C211.28 23.7009 212.62 27.0907 212.62 31.3788V62.5827H205.632ZM235.68 62.5827V33.2041C235.68 29.8432 234.923 27.3805 233.409 25.8159C231.895 24.2514 229.711 23.4691 226.858 23.4691C224.179 23.4691 221.762 24.1065 219.608 25.3813C217.453 26.6561 215.735 28.4235 214.454 30.6834C213.231 32.9433 212.62 35.5798 212.62 38.593L210.873 28.0758C212.387 24.7729 214.716 22.1653 217.861 20.2531C221.005 18.3409 224.383 17.3848 227.993 17.3848C232.303 17.3848 235.826 18.6596 238.563 21.2092C241.3 23.7009 242.668 27.0907 242.668 31.3788V62.5827H235.68Z" fill="#222222"/>
<path d="M160.716 62.5827C160.483 61.5976 160.308 60.4677 160.192 59.1929C160.134 57.9181 160.105 56.2956 160.105 54.3254H159.668V33.1171C159.668 29.7563 158.882 27.2936 157.309 25.729C155.795 24.1065 153.32 23.2953 149.884 23.2953C146.507 23.2953 143.799 23.9906 141.761 25.3813C139.781 26.7141 138.674 28.6263 138.442 31.118H131.716C132.007 26.83 133.812 23.4691 137.131 21.0354C140.451 18.6016 144.789 17.3848 150.147 17.3848C155.679 17.3848 159.784 18.6886 162.463 21.2961C165.142 23.9037 166.481 27.8151 166.481 33.0302V54.3254C166.481 55.6002 166.568 56.933 166.743 58.3237C166.918 59.6564 167.151 61.0761 167.442 62.5827H160.716ZM145.43 63.4519C140.829 63.4519 137.16 62.3509 134.423 60.149C131.745 57.8891 130.405 54.818 130.405 50.9356C130.405 47.0532 131.745 44.04 134.423 41.896C137.102 39.752 141.004 38.2454 146.128 37.3762L161.677 34.7686V40.5053L147.177 42.7652C143.916 43.2867 141.441 44.1559 139.752 45.3727C138.063 46.5896 137.219 48.357 137.219 50.6748C137.219 52.9347 137.976 54.6441 139.49 55.803C141.062 56.962 143.362 57.5414 146.39 57.5414C150.292 57.5414 153.466 56.6722 155.912 54.9338C158.416 53.1375 159.668 50.8197 159.668 47.9803L160.803 54.1516C159.872 57.1068 158.037 59.3957 155.3 61.0182C152.621 62.6407 149.331 63.4519 145.43 63.4519Z" fill="#222222"/>
<path d="M102.883 65.0004C98.56 65.0004 94.5581 64.2159 90.8774 62.6469C87.2552 61.0198 84.1004 58.7825 81.4129 55.935C78.7254 53.0294 76.6514 49.6299 75.1909 45.7364C73.7303 41.7848 73 37.4555 73 32.7485C73 28.0415 73.7303 23.7412 75.1909 19.8477C76.6514 15.8961 78.6962 12.4966 81.3253 9.64915C84.0127 6.74357 87.1676 4.50628 90.7898 2.93727C94.4704 1.31014 98.4724 0.496582 102.796 0.496582C107.528 0.496582 111.764 1.45542 115.503 3.3731C119.3 5.29078 122.397 7.99297 124.792 11.4797C127.246 14.9664 128.765 19.0342 129.349 23.6831H122.163C121.462 18.5112 119.388 14.4434 115.941 11.4797C112.552 8.45786 108.2 6.94696 102.883 6.94696C98.3848 6.94696 94.4412 8.05108 91.0527 10.2593C87.6642 12.4094 85.0351 15.4312 83.1656 19.3247C81.2961 23.1601 80.3613 27.6347 80.3613 32.7485C80.3613 37.8623 81.2961 42.366 83.1656 46.2594C85.0351 50.0948 87.6642 53.1166 91.0527 55.3248C94.4412 57.475 98.3556 58.55 102.796 58.55C108.229 58.55 112.669 57.0391 116.116 54.0173C119.622 50.9955 121.696 46.9277 122.338 41.8139H129.524C128.94 46.4628 127.421 50.5306 124.967 54.0173C122.572 57.504 119.475 60.2062 115.678 62.1239C111.939 64.0416 107.674 65.0004 102.883 65.0004Z" fill="#222222"/>
</svg>
