<svg width="481" height="166" viewBox="0 0 481 166" fill="none" xmlns="http://www.w3.org/2000/svg">
<path d="M0 39.4384V98.4941C0 102.038 1.89116 105.31 4.95795 107.079L56.1019 136.605C59.1687 138.375 62.9467 138.375 66.0177 136.605L117.162 107.079C120.228 105.31 122.12 102.034 122.12 98.4941V39.4384C122.12 35.8947 120.228 32.6229 117.162 30.8531L66.0177 1.32734C62.9509 -0.442447 59.1728 -0.442447 56.1019 1.32734L4.95795 30.8531C1.89116 32.6229 0 35.8989 0 39.4384Z" fill="#A544FF"/>
<g filter="url(#filter0_d_371_4)">
<path d="M50.3091 85.56V96H44.0451C39.5811 96 36.1011 94.92 33.6051 92.76C31.1091 90.552 29.8611 86.976 29.8611 82.032V66.048H24.9651V55.824H29.8611V46.032H42.1731V55.824H50.2371V66.048H42.1731V82.176C42.1731 83.376 42.4611 84.24 43.0371 84.768C43.6131 85.296 44.5731 85.56 45.9171 85.56H50.3091ZM75.4551 96.576C71.5191 96.576 67.9671 95.736 64.7991 94.056C61.6791 92.376 59.2071 89.976 57.3831 86.856C55.6071 83.736 54.7191 80.088 54.7191 75.912C54.7191 71.784 55.6311 68.16 57.4551 65.04C59.2791 61.872 61.7751 59.448 64.9431 57.768C68.1111 56.088 71.6631 55.248 75.5991 55.248C79.5351 55.248 83.0871 56.088 86.2551 57.768C89.4231 59.448 91.9191 61.872 93.7431 65.04C95.5671 68.16 96.4791 71.784 96.4791 75.912C96.4791 80.04 95.5431 83.688 93.6711 86.856C91.8471 89.976 89.3271 92.376 86.1111 94.056C82.9431 95.736 79.3911 96.576 75.4551 96.576ZM75.4551 85.92C77.8071 85.92 79.7991 85.056 81.4311 83.328C83.1111 81.6 83.9511 79.128 83.9511 75.912C83.9511 72.696 83.1351 70.224 81.5031 68.496C79.9191 66.768 77.9511 65.904 75.5991 65.904C73.1991 65.904 71.2071 66.768 69.6231 68.496C68.0391 70.176 67.2471 72.648 67.2471 75.912C67.2471 79.128 68.0151 81.6 69.5511 83.328C71.1351 85.056 73.1031 85.92 75.4551 85.92ZM91.0071 42V50.496H62.2071V42H91.0071Z" fill="white"/>
</g>
<path d="M179.248 62.04V69H175.072C172.096 69 169.776 68.28 168.112 66.84C166.448 65.368 165.616 62.984 165.616 59.688V49.032H162.352V42.216H165.616V35.688H173.824V42.216H179.2V49.032H173.824V59.784C173.824 60.584 174.016 61.16 174.4 61.512C174.784 61.864 175.424 62.04 176.32 62.04H179.248ZM196.012 69.384C193.388 69.384 191.02 68.824 188.908 67.704C186.828 66.584 185.18 64.984 183.964 62.904C182.78 60.824 182.188 58.392 182.188 55.608C182.188 52.856 182.796 50.44 184.012 48.36C185.228 46.248 186.892 44.632 189.004 43.512C191.116 42.392 193.484 41.832 196.108 41.832C198.732 41.832 201.1 42.392 203.212 43.512C205.324 44.632 206.988 46.248 208.204 48.36C209.42 50.44 210.028 52.856 210.028 55.608C210.028 58.36 209.404 60.792 208.156 62.904C206.94 64.984 205.26 66.584 203.116 67.704C201.004 68.824 198.636 69.384 196.012 69.384ZM196.012 62.28C197.58 62.28 198.908 61.704 199.996 60.552C201.116 59.4 201.676 57.752 201.676 55.608C201.676 53.464 201.132 51.816 200.044 50.664C198.988 49.512 197.676 48.936 196.108 48.936C194.508 48.936 193.18 49.512 192.124 50.664C191.068 51.784 190.54 53.432 190.54 55.608C190.54 57.752 191.052 59.4 192.076 60.552C193.132 61.704 194.444 62.28 196.012 62.28ZM222.59 46.68C223.55 45.208 224.75 44.056 226.19 43.224C227.63 42.36 229.23 41.928 230.99 41.928V50.616H228.734C226.686 50.616 225.15 51.064 224.126 51.96C223.102 52.824 222.59 54.36 222.59 56.568V69H214.382V42.216H222.59V46.68ZM243.122 46.68C244.082 45.208 245.282 44.056 246.722 43.224C248.162 42.36 249.762 41.928 251.522 41.928V50.616H249.266C247.218 50.616 245.682 51.064 244.658 51.96C243.634 52.824 243.122 54.36 243.122 56.568V69H234.914V42.216H243.122V46.68ZM280.693 55.176C280.693 55.944 280.645 56.744 280.549 57.576H261.973C262.101 59.24 262.629 60.52 263.557 61.416C264.517 62.28 265.685 62.712 267.061 62.712C269.109 62.712 270.533 61.848 271.333 60.12H280.069C279.621 61.88 278.805 63.464 277.621 64.872C276.469 66.28 275.013 67.384 273.253 68.184C271.493 68.984 269.525 69.384 267.349 69.384C264.725 69.384 262.389 68.824 260.341 67.704C258.293 66.584 256.693 64.984 255.541 62.904C254.389 60.824 253.813 58.392 253.813 55.608C253.813 52.824 254.373 50.392 255.493 48.312C256.645 46.232 258.245 44.632 260.293 43.512C262.341 42.392 264.693 41.832 267.349 41.832C269.941 41.832 272.245 42.376 274.261 43.464C276.277 44.552 277.845 46.104 278.965 48.12C280.117 50.136 280.693 52.488 280.693 55.176ZM272.293 53.016C272.293 51.608 271.813 50.488 270.853 49.656C269.893 48.824 268.693 48.408 267.253 48.408C265.877 48.408 264.709 48.808 263.749 49.608C262.821 50.408 262.245 51.544 262.021 53.016H272.293ZM301.343 41.928C304.479 41.928 306.975 42.952 308.831 45C310.719 47.016 311.663 49.8 311.663 53.352V69H303.503V54.456C303.503 52.664 303.039 51.272 302.111 50.28C301.183 49.288 299.935 48.792 298.367 48.792C296.799 48.792 295.551 49.288 294.623 50.28C293.695 51.272 293.231 52.664 293.231 54.456V69H285.023V42.216H293.231V45.768C294.063 44.584 295.183 43.656 296.591 42.984C297.999 42.28 299.583 41.928 301.343 41.928ZM342.615 55.176C342.615 55.944 342.567 56.744 342.471 57.576H323.895C324.023 59.24 324.551 60.52 325.479 61.416C326.439 62.28 327.607 62.712 328.983 62.712C331.031 62.712 332.455 61.848 333.255 60.12H341.991C341.543 61.88 340.727 63.464 339.543 64.872C338.391 66.28 336.935 67.384 335.175 68.184C333.415 68.984 331.447 69.384 329.271 69.384C326.647 69.384 324.311 68.824 322.263 67.704C320.215 66.584 318.615 64.984 317.463 62.904C316.311 60.824 315.735 58.392 315.735 55.608C315.735 52.824 316.295 50.392 317.415 48.312C318.567 46.232 320.167 44.632 322.215 43.512C324.263 42.392 326.615 41.832 329.271 41.832C331.863 41.832 334.167 42.376 336.183 43.464C338.199 44.552 339.767 46.104 340.887 48.12C342.039 50.136 342.615 52.488 342.615 55.176ZM334.215 53.016C334.215 51.608 333.735 50.488 332.775 49.656C331.815 48.824 330.615 48.408 329.175 48.408C327.799 48.408 326.631 48.808 325.671 49.608C324.743 50.408 324.167 51.544 323.943 53.016H334.215ZM357.121 41.832C359.009 41.832 360.657 42.216 362.065 42.984C363.505 43.752 364.609 44.76 365.377 46.008V42.216H373.585V68.952C373.585 71.416 373.089 73.64 372.097 75.624C371.137 77.64 369.649 79.24 367.633 80.424C365.649 81.608 363.169 82.2 360.193 82.2C356.225 82.2 353.009 81.256 350.545 79.368C348.081 77.512 346.673 74.984 346.321 71.784H354.433C354.689 72.808 355.297 73.608 356.257 74.184C357.217 74.792 358.401 75.096 359.809 75.096C361.505 75.096 362.849 74.6 363.841 73.608C364.865 72.648 365.377 71.096 365.377 68.952V65.16C364.577 66.408 363.473 67.432 362.065 68.232C360.657 69 359.009 69.384 357.121 69.384C354.913 69.384 352.913 68.824 351.121 67.704C349.329 66.552 347.905 64.936 346.849 62.856C345.825 60.744 345.313 58.312 345.313 55.56C345.313 52.808 345.825 50.392 346.849 48.312C347.905 46.232 349.329 44.632 351.121 43.512C352.913 42.392 354.913 41.832 357.121 41.832ZM365.377 55.608C365.377 53.56 364.801 51.944 363.649 50.76C362.529 49.576 361.153 48.984 359.521 48.984C357.889 48.984 356.497 49.576 355.345 50.76C354.225 51.912 353.665 53.512 353.665 55.56C353.665 57.608 354.225 59.24 355.345 60.456C356.497 61.64 357.889 62.232 359.521 62.232C361.153 62.232 362.529 61.64 363.649 60.456C364.801 59.272 365.377 57.656 365.377 55.608ZM387.731 46.68C388.691 45.208 389.891 44.056 391.331 43.224C392.771 42.36 394.371 41.928 396.131 41.928V50.616H393.875C391.827 50.616 390.291 51.064 389.267 51.96C388.243 52.824 387.731 54.36 387.731 56.568V69H379.523V42.216H387.731V46.68ZM398.422 55.56C398.422 52.808 398.934 50.392 399.958 48.312C401.014 46.232 402.438 44.632 404.23 43.512C406.022 42.392 408.022 41.832 410.23 41.832C412.118 41.832 413.766 42.216 415.174 42.984C416.614 43.752 417.718 44.76 418.486 46.008V42.216H426.694V69H418.486V65.208C417.686 66.456 416.566 67.464 415.126 68.232C413.718 69 412.07 69.384 410.182 69.384C408.006 69.384 406.022 68.824 404.23 67.704C402.438 66.552 401.014 64.936 399.958 62.856C398.934 60.744 398.422 58.312 398.422 55.56ZM418.486 55.608C418.486 53.56 417.91 51.944 416.758 50.76C415.638 49.576 414.262 48.984 412.63 48.984C410.998 48.984 409.606 49.576 408.454 50.76C407.334 51.912 406.774 53.512 406.774 55.56C406.774 57.608 407.334 59.24 408.454 60.456C409.606 61.64 410.998 62.232 412.63 62.232C414.262 62.232 415.638 61.64 416.758 60.456C417.91 59.272 418.486 57.656 418.486 55.608ZM152.816 119.384C150.192 119.384 147.824 118.824 145.712 117.704C143.632 116.584 141.984 114.984 140.768 112.904C139.584 110.824 138.992 108.392 138.992 105.608C138.992 102.856 139.6 100.44 140.816 98.36C142.032 96.248 143.696 94.632 145.808 93.512C147.92 92.392 150.288 91.832 152.912 91.832C155.536 91.832 157.904 92.392 160.016 93.512C162.128 94.632 163.792 96.248 165.008 98.36C166.224 100.44 166.832 102.856 166.832 105.608C166.832 108.36 166.208 110.792 164.96 112.904C163.744 114.984 162.064 116.584 159.92 117.704C157.808 118.824 155.44 119.384 152.816 119.384ZM152.816 112.28C154.384 112.28 155.712 111.704 156.8 110.552C157.92 109.4 158.48 107.752 158.48 105.608C158.48 103.464 157.936 101.816 156.848 100.664C155.792 99.512 154.48 98.936 152.912 98.936C151.312 98.936 149.984 99.512 148.928 100.664C147.872 101.784 147.344 103.432 147.344 105.608C147.344 107.752 147.856 109.4 148.88 110.552C149.936 111.704 151.248 112.28 152.816 112.28ZM179.395 96.68C180.355 95.208 181.555 94.056 182.995 93.224C184.435 92.36 186.035 91.928 187.795 91.928V100.616H185.539C183.491 100.616 181.955 101.064 180.931 101.96C179.907 102.824 179.395 104.36 179.395 106.568V119H171.187V92.216H179.395V96.68ZM201.894 91.832C203.782 91.832 205.43 92.216 206.838 92.984C208.278 93.752 209.382 94.76 210.15 96.008V92.216H218.358V118.952C218.358 121.416 217.862 123.64 216.87 125.624C215.91 127.64 214.422 129.24 212.406 130.424C210.422 131.608 207.942 132.2 204.966 132.2C200.998 132.2 197.782 131.256 195.318 129.368C192.854 127.512 191.446 124.984 191.094 121.784H199.206C199.462 122.808 200.07 123.608 201.03 124.184C201.99 124.792 203.174 125.096 204.582 125.096C206.278 125.096 207.622 124.6 208.614 123.608C209.638 122.648 210.15 121.096 210.15 118.952V115.16C209.35 116.408 208.246 117.432 206.838 118.232C205.43 119 203.782 119.384 201.894 119.384C199.686 119.384 197.686 118.824 195.894 117.704C194.102 116.552 192.678 114.936 191.622 112.856C190.598 110.744 190.086 108.312 190.086 105.56C190.086 102.808 190.598 100.392 191.622 98.312C192.678 96.232 194.102 94.632 195.894 93.512C197.686 92.392 199.686 91.832 201.894 91.832ZM210.15 105.608C210.15 103.56 209.574 101.944 208.422 100.76C207.302 99.576 205.926 98.984 204.294 98.984C202.662 98.984 201.27 99.576 200.118 100.76C198.998 101.912 198.438 103.512 198.438 105.56C198.438 107.608 198.998 109.24 200.118 110.456C201.27 111.64 202.662 112.232 204.294 112.232C205.926 112.232 207.302 111.64 208.422 110.456C209.574 109.272 210.15 107.656 210.15 105.608ZM222.664 105.56C222.664 102.808 223.176 100.392 224.2 98.312C225.256 96.232 226.68 94.632 228.472 93.512C230.264 92.392 232.264 91.832 234.472 91.832C236.36 91.832 238.008 92.216 239.416 92.984C240.856 93.752 241.96 94.76 242.728 96.008V92.216H250.936V119H242.728V115.208C241.928 116.456 240.808 117.464 239.368 118.232C237.96 119 236.312 119.384 234.424 119.384C232.248 119.384 230.264 118.824 228.472 117.704C226.68 116.552 225.256 114.936 224.2 112.856C223.176 110.744 222.664 108.312 222.664 105.56ZM242.728 105.608C242.728 103.56 242.152 101.944 241 100.76C239.88 99.576 238.504 98.984 236.872 98.984C235.24 98.984 233.848 99.576 232.696 100.76C231.576 101.912 231.016 103.512 231.016 105.56C231.016 107.608 231.576 109.24 232.696 110.456C233.848 111.64 235.24 112.232 236.872 112.232C238.504 112.232 239.88 111.64 241 110.456C242.152 109.272 242.728 107.656 242.728 105.608ZM273.194 91.928C276.33 91.928 278.826 92.952 280.682 95C282.57 97.016 283.514 99.8 283.514 103.352V119H275.354V104.456C275.354 102.664 274.89 101.272 273.962 100.28C273.034 99.288 271.786 98.792 270.218 98.792C268.65 98.792 267.402 99.288 266.474 100.28C265.546 101.272 265.082 102.664 265.082 104.456V119H256.874V92.216H265.082V95.768C265.914 94.584 267.034 93.656 268.442 92.984C269.85 92.28 271.434 91.928 273.194 91.928ZM293.346 89.432C291.906 89.432 290.722 89.016 289.794 88.184C288.898 87.32 288.45 86.264 288.45 85.016C288.45 83.736 288.898 82.68 289.794 81.848C290.722 80.984 291.906 80.552 293.346 80.552C294.754 80.552 295.906 80.984 296.802 81.848C297.73 82.68 298.194 83.736 298.194 85.016C298.194 86.264 297.73 87.32 296.802 88.184C295.906 89.016 294.754 89.432 293.346 89.432ZM297.426 92.216V119H289.218V92.216H297.426ZM311.054 112.232H322.67V119H301.886V112.472L313.022 98.984H301.982V92.216H322.43V98.744L311.054 112.232ZM325.555 105.56C325.555 102.808 326.067 100.392 327.091 98.312C328.147 96.232 329.571 94.632 331.363 93.512C333.155 92.392 335.155 91.832 337.363 91.832C339.251 91.832 340.899 92.216 342.307 92.984C343.747 93.752 344.851 94.76 345.619 96.008V92.216H353.827V119H345.619V115.208C344.819 116.456 343.699 117.464 342.259 118.232C340.851 119 339.203 119.384 337.315 119.384C335.139 119.384 333.155 118.824 331.363 117.704C329.571 116.552 328.147 114.936 327.091 112.856C326.067 110.744 325.555 108.312 325.555 105.56ZM345.619 105.608C345.619 103.56 345.043 101.944 343.891 100.76C342.771 99.576 341.395 98.984 339.763 98.984C338.131 98.984 336.739 99.576 335.587 100.76C334.467 101.912 333.907 103.512 333.907 105.56C333.907 107.608 334.467 109.24 335.587 110.456C336.739 111.64 338.131 112.232 339.763 112.232C341.395 112.232 342.771 111.64 343.891 110.456C345.043 109.272 345.619 107.656 345.619 105.608ZM374.693 112.04V119H370.517C367.541 119 365.221 118.28 363.557 116.84C361.893 115.368 361.061 112.984 361.061 109.688V99.032H357.797V92.216H361.061V85.688H369.269V92.216H374.645V99.032H369.269V109.784C369.269 110.584 369.461 111.16 369.845 111.512C370.229 111.864 370.869 112.04 371.765 112.04H374.693ZM383.393 89.432C381.953 89.432 380.769 89.016 379.841 88.184C378.945 87.32 378.497 86.264 378.497 85.016C378.497 83.736 378.945 82.68 379.841 81.848C380.769 80.984 381.953 80.552 383.393 80.552C384.801 80.552 385.953 80.984 386.849 81.848C387.777 82.68 388.241 83.736 388.241 85.016C388.241 86.264 387.777 87.32 386.849 88.184C385.953 89.016 384.801 89.432 383.393 89.432ZM387.473 92.216V119H379.265V92.216H387.473ZM405.613 119.384C402.989 119.384 400.621 118.824 398.509 117.704C396.429 116.584 394.781 114.984 393.565 112.904C392.381 110.824 391.789 108.392 391.789 105.608C391.789 102.856 392.397 100.44 393.613 98.36C394.829 96.248 396.493 94.632 398.605 93.512C400.717 92.392 403.085 91.832 405.709 91.832C408.333 91.832 410.701 92.392 412.813 93.512C414.925 94.632 416.589 96.248 417.805 98.36C419.021 100.44 419.629 102.856 419.629 105.608C419.629 108.36 419.005 110.792 417.757 112.904C416.541 114.984 414.861 116.584 412.717 117.704C410.605 118.824 408.237 119.384 405.613 119.384ZM405.613 112.28C407.181 112.28 408.509 111.704 409.597 110.552C410.717 109.4 411.277 107.752 411.277 105.608C411.277 103.464 410.733 101.816 409.645 100.664C408.589 99.512 407.277 98.936 405.709 98.936C404.109 98.936 402.781 99.512 401.725 100.664C400.669 101.784 400.141 103.432 400.141 105.608C400.141 107.752 400.653 109.4 401.677 110.552C402.733 111.704 404.045 112.28 405.613 112.28ZM440.304 91.928C443.44 91.928 445.936 92.952 447.792 95C449.68 97.016 450.624 99.8 450.624 103.352V119H442.464V104.456C442.464 102.664 442 101.272 441.072 100.28C440.144 99.288 438.896 98.792 437.328 98.792C435.76 98.792 434.512 99.288 433.584 100.28C432.656 101.272 432.192 102.664 432.192 104.456V119H423.984V92.216H432.192V95.768C433.024 94.584 434.144 93.656 435.552 92.984C436.96 92.28 438.544 91.928 440.304 91.928Z" fill="black"/>
<defs>
<filter id="filter0_d_371_4" x="20.9651" y="42" width="79.514" height="62.576" filterUnits="userSpaceOnUse" color-interpolation-filters="sRGB">
<feFlood flood-opacity="0" result="BackgroundImageFix"/>
<feColorMatrix in="SourceAlpha" type="matrix" values="0 0 0 0 0 0 0 0 0 0 0 0 0 0 0 0 0 0 127 0" result="hardAlpha"/>
<feOffset dy="4"/>
<feGaussianBlur stdDeviation="2"/>
<feComposite in2="hardAlpha" operator="out"/>
<feColorMatrix type="matrix" values="0 0 0 0 0 0 0 0 0 0 0 0 0 0 0 0 0 0 0.25 0"/>
<feBlend mode="normal" in2="BackgroundImageFix" result="effect1_dropShadow_371_4"/>
<feBlend mode="normal" in="SourceGraphic" in2="effect1_dropShadow_371_4" result="shape"/>
</filter>
</defs>
</svg>
